<svg width="45" height="46" viewBox="0 0 45 46" fill="none" xmlns="http://www.w3.org/2000/svg">
<g clip-path="url(#clip0_312_1086)">
<path d="M0 0.661499H45V45.6615H0V0.661499Z" fill="#F0DB4F"/>
<path d="M41.3177 34.9291C40.9883 32.8759 39.6494 31.152 35.6841 29.5437C34.3067 28.9106 32.7711 28.4572 32.3134 27.4135C32.1508 26.806 32.1295 26.4638 32.2321 26.096C32.5273 24.9025 33.9517 24.5304 35.081 24.8726C35.8082 25.1164 36.4968 25.6768 36.9118 26.5708C38.8538 25.3132 38.8495 25.3217 40.2055 24.4577C39.7093 23.6877 39.4441 23.3327 39.119 23.0033C37.9512 21.6987 36.36 21.0271 33.8148 21.0784C33.3742 21.134 32.9294 21.1939 32.4888 21.2495C31.2184 21.5703 30.0078 22.2376 29.2977 23.1317C27.1675 25.5485 27.7749 29.7789 30.3671 31.52C32.9208 33.4363 36.6722 33.8726 37.1513 35.6649C37.6176 37.8593 35.5387 38.5693 33.4726 38.317C31.9498 38.0005 31.1029 37.2262 30.1874 35.8189C28.5021 36.7942 28.5021 36.7942 26.7697 37.7909C27.1804 38.6892 27.6123 39.0955 28.3011 39.874C31.5606 43.1806 39.7179 43.0181 41.1808 38.0133C41.2407 37.8422 41.6342 36.6958 41.3177 34.9291ZM24.4641 21.3436H20.2549C20.2549 24.9795 20.2379 28.5898 20.2379 32.2257C20.2379 34.5399 20.3576 36.6615 19.9812 37.3117C19.3652 38.5907 17.7697 38.4325 17.0425 38.1843C16.3025 37.8207 15.9261 37.3031 15.4898 36.5717C15.37 36.3621 15.2802 36.1996 15.2502 36.1867C14.1081 36.884 12.9702 37.5855 11.8281 38.2827C12.3971 39.4505 13.2354 40.4643 14.3091 41.123C15.9132 42.0855 18.0691 42.3806 20.3234 41.863C21.7906 41.4353 23.0567 40.5499 23.7198 39.2024C24.6779 37.4358 24.4726 35.297 24.4641 32.9315C24.4854 29.0731 24.4641 25.2148 24.4641 21.3436Z" fill="white"/>
</g>
<defs>
<clipPath id="clip0_312_1086">
<rect width="45" height="45" fill="white" transform="translate(0 0.661621)"/>
</clipPath>
</defs>
</svg>
