<svg width="48" height="48" viewBox="0 0 48 48" fill="none" xmlns="http://www.w3.org/2000/svg"><path d="M24.064 0.000813679C37.3804 0.111555 48.0815 10.9312 47.9995 24.2011C47.9186 37.3312 36.9834 48.1015 23.8371 47.9993C10.5784 47.8961 -0.134677 36.979 0.00127988 23.7094C0.135343 10.6319 11.0353 -0.1076 24.064 0.000813679Z" fill="#E6523B"></path><path d="M14.4097 23.8482C14.4097 22.2638 14.3965 20.6794 14.415 19.0953C14.4256 18.1891 14.4639 17.18 15.7259 17.2433C16.939 17.3042 16.947 18.3024 16.9484 19.2084C16.9531 21.9665 16.932 24.7246 16.9545 27.4823C16.9913 31.9529 19.8826 35.0069 24.0326 34.9923C28.1615 34.9778 31.0851 31.8596 31.1122 27.436C31.1205 26.0865 31.121 24.7367 31.1154 23.3872C31.112 22.5627 31.474 21.9654 32.3155 21.9573C33.1441 21.9493 33.594 22.541 33.5788 23.3473C33.5361 25.6285 33.801 27.9218 33.2799 30.186C32.2226 34.7798 27.9841 37.7785 23.0263 37.4162C18.6473 37.0962 14.8958 33.3936 14.5647 28.9457C14.4389 27.2552 14.5442 25.5476 14.5442 23.848C14.4995 23.8482 14.4546 23.8482 14.4097 23.8482Z" fill="#FFFDFD"></path><path d="M29.3747 20.9127C29.3747 23.0816 29.393 25.2508 29.3704 27.4194C29.3373 30.6161 27.1156 32.996 24.1034 33.0983C21.1525 33.1986 18.6263 30.8384 18.5615 27.684C18.4686 23.1721 18.5345 18.6569 18.5363 14.1432C18.5366 13.2571 18.7164 12.4197 19.805 12.3955C20.9568 12.3701 21.0336 13.26 21.0343 14.1238C21.038 17.934 21.0365 21.7442 21.0368 25.5545C21.0368 25.9649 21.0311 26.3753 21.038 26.7855C21.0794 29.2324 22.1384 30.6186 23.9652 30.6221C25.7862 30.6255 26.8822 29.2028 26.8878 26.8021C26.8973 22.6986 26.8893 18.5953 26.9075 14.4919C26.9115 13.5903 26.6599 12.3938 28.0738 12.3834C29.5635 12.3723 29.3657 13.6014 29.3713 14.5817C29.3832 16.6921 29.3749 18.8024 29.3747 20.9127Z" fill="white"></path><path d="M22.7046 19.5954C22.7046 17.1902 22.7099 14.785 22.7017 12.3797C22.6987 11.5104 22.7461 10.6298 23.8749 10.5814C25.1436 10.5267 25.1783 11.4662 25.1767 12.4044C25.1686 17.1562 25.1605 21.9081 25.1835 26.6599C25.1879 27.5941 24.9771 28.4077 23.934 28.3968C22.8978 28.386 22.6838 27.562 22.6951 26.6352C22.7239 24.2886 22.7047 21.942 22.7046 19.5954Z" fill="#FFFDFD"></path></svg>